<?xml version="1.0" encoding="UTF-8"?>
<svg xmlns="http://www.w3.org/2000/svg" width="920" height="2216" viewBox="0 0 920 2216">
<rect width="920" height="2216" fill="#FFFFFF" />
<line x1="230.0" y1="1108.0" x2="290.0" y2="1108.0" stroke="#666666" stroke-width="2" />
<line x1="290.0" y1="130.0" x2="290.0" y2="2058.0" stroke="#666666" stroke-width="2" />
<line x1="290.0" y1="130.0" x2="350.0" y2="130.0" stroke="#666666" stroke-width="2" />
<line x1="536.0" y1="130.0" x2="620.0" y2="130.0" stroke="#666666" stroke-width="2" />
<line x1="620.0" y1="74.0" x2="620.0" y2="186.0" stroke="#666666" stroke-width="2" />
<line x1="620.0" y1="74.0" x2="670.0" y2="74.0" stroke="#666666" stroke-width="2" />
<line x1="620.0" y1="130.0" x2="670.0" y2="130.0" stroke="#666666" stroke-width="2" />
<line x1="620.0" y1="186.0" x2="670.0" y2="186.0" stroke="#666666" stroke-width="2" />
<line x1="290.0" y1="310.0" x2="350.0" y2="310.0" stroke="#666666" stroke-width="2" />
<line x1="536.0" y1="310.0" x2="620.0" y2="310.0" stroke="#666666" stroke-width="2" />
<line x1="620.0" y1="254.0" x2="620.0" y2="366.0" stroke="#666666" stroke-width="2" />
<line x1="620.0" y1="254.0" x2="670.0" y2="254.0" stroke="#666666" stroke-width="2" />
<line x1="620.0" y1="310.0" x2="670.0" y2="310.0" stroke="#666666" stroke-width="2" />
<line x1="620.0" y1="366.0" x2="670.0" y2="366.0" stroke="#666666" stroke-width="2" />
<line x1="290.0" y1="518.0" x2="350.0" y2="518.0" stroke="#666666" stroke-width="2" />
<line x1="536.0" y1="518.0" x2="620.0" y2="518.0" stroke="#666666" stroke-width="2" />
<line x1="620.0" y1="434.0" x2="620.0" y2="602.0" stroke="#666666" stroke-width="2" />
<line x1="620.0" y1="434.0" x2="670.0" y2="434.0" stroke="#666666" stroke-width="2" />
<line x1="620.0" y1="490.0" x2="670.0" y2="490.0" stroke="#666666" stroke-width="2" />
<line x1="620.0" y1="546.0" x2="670.0" y2="546.0" stroke="#666666" stroke-width="2" />
<line x1="620.0" y1="602.0" x2="670.0" y2="602.0" stroke="#666666" stroke-width="2" />
<line x1="290.0" y1="754.0" x2="350.0" y2="754.0" stroke="#666666" stroke-width="2" />
<line x1="536.0" y1="754.0" x2="620.0" y2="754.0" stroke="#666666" stroke-width="2" />
<line x1="620.0" y1="670.0" x2="620.0" y2="838.0" stroke="#666666" stroke-width="2" />
<line x1="620.0" y1="670.0" x2="670.0" y2="670.0" stroke="#666666" stroke-width="2" />
<line x1="620.0" y1="726.0" x2="670.0" y2="726.0" stroke="#666666" stroke-width="2" />
<line x1="620.0" y1="782.0" x2="670.0" y2="782.0" stroke="#666666" stroke-width="2" />
<line x1="620.0" y1="838.0" x2="670.0" y2="838.0" stroke="#666666" stroke-width="2" />
<line x1="290.0" y1="962.0" x2="350.0" y2="962.0" stroke="#666666" stroke-width="2" />
<line x1="536.0" y1="962.0" x2="620.0" y2="962.0" stroke="#666666" stroke-width="2" />
<line x1="620.0" y1="906.0" x2="620.0" y2="1018.0" stroke="#666666" stroke-width="2" />
<line x1="620.0" y1="906.0" x2="670.0" y2="906.0" stroke="#666666" stroke-width="2" />
<line x1="620.0" y1="962.0" x2="670.0" y2="962.0" stroke="#666666" stroke-width="2" />
<line x1="620.0" y1="1018.0" x2="670.0" y2="1018.0" stroke="#666666" stroke-width="2" />
<line x1="290.0" y1="1170.0" x2="350.0" y2="1170.0" stroke="#666666" stroke-width="2" />
<line x1="536.0" y1="1170.0" x2="620.0" y2="1170.0" stroke="#666666" stroke-width="2" />
<line x1="620.0" y1="1086.0" x2="620.0" y2="1254.0" stroke="#666666" stroke-width="2" />
<line x1="620.0" y1="1086.0" x2="670.0" y2="1086.0" stroke="#666666" stroke-width="2" />
<line x1="620.0" y1="1142.0" x2="670.0" y2="1142.0" stroke="#666666" stroke-width="2" />
<line x1="620.0" y1="1198.0" x2="670.0" y2="1198.0" stroke="#666666" stroke-width="2" />
<line x1="620.0" y1="1254.0" x2="670.0" y2="1254.0" stroke="#666666" stroke-width="2" />
<line x1="290.0" y1="1406.0" x2="350.0" y2="1406.0" stroke="#666666" stroke-width="2" />
<line x1="536.0" y1="1406.0" x2="620.0" y2="1406.0" stroke="#666666" stroke-width="2" />
<line x1="620.0" y1="1322.0" x2="620.0" y2="1490.0" stroke="#666666" stroke-width="2" />
<line x1="620.0" y1="1322.0" x2="670.0" y2="1322.0" stroke="#666666" stroke-width="2" />
<line x1="620.0" y1="1378.0" x2="670.0" y2="1378.0" stroke="#666666" stroke-width="2" />
<line x1="620.0" y1="1434.0" x2="670.0" y2="1434.0" stroke="#666666" stroke-width="2" />
<line x1="620.0" y1="1490.0" x2="670.0" y2="1490.0" stroke="#666666" stroke-width="2" />
<line x1="290.0" y1="1614.0" x2="350.0" y2="1614.0" stroke="#666666" stroke-width="2" />
<line x1="536.0" y1="1614.0" x2="620.0" y2="1614.0" stroke="#666666" stroke-width="2" />
<line x1="620.0" y1="1558.0" x2="620.0" y2="1670.0" stroke="#666666" stroke-width="2" />
<line x1="620.0" y1="1558.0" x2="670.0" y2="1558.0" stroke="#666666" stroke-width="2" />
<line x1="620.0" y1="1614.0" x2="670.0" y2="1614.0" stroke="#666666" stroke-width="2" />
<line x1="620.0" y1="1670.0" x2="670.0" y2="1670.0" stroke="#666666" stroke-width="2" />
<line x1="290.0" y1="1822.0" x2="350.0" y2="1822.0" stroke="#666666" stroke-width="2" />
<line x1="536.0" y1="1822.0" x2="620.0" y2="1822.0" stroke="#666666" stroke-width="2" />
<line x1="620.0" y1="1738.0" x2="620.0" y2="1906.0" stroke="#666666" stroke-width="2" />
<line x1="620.0" y1="1738.0" x2="670.0" y2="1738.0" stroke="#666666" stroke-width="2" />
<line x1="620.0" y1="1794.0" x2="670.0" y2="1794.0" stroke="#666666" stroke-width="2" />
<line x1="620.0" y1="1850.0" x2="670.0" y2="1850.0" stroke="#666666" stroke-width="2" />
<line x1="620.0" y1="1906.0" x2="670.0" y2="1906.0" stroke="#666666" stroke-width="2" />
<line x1="290.0" y1="2058.0" x2="350.0" y2="2058.0" stroke="#666666" stroke-width="2" />
<line x1="536.0" y1="2058.0" x2="620.0" y2="2058.0" stroke="#666666" stroke-width="2" />
<line x1="620.0" y1="1974.0" x2="620.0" y2="2142.0" stroke="#666666" stroke-width="2" />
<line x1="620.0" y1="1974.0" x2="670.0" y2="1974.0" stroke="#666666" stroke-width="2" />
<line x1="620.0" y1="2030.0" x2="670.0" y2="2030.0" stroke="#666666" stroke-width="2" />
<line x1="620.0" y1="2086.0" x2="670.0" y2="2086.0" stroke="#666666" stroke-width="2" />
<line x1="620.0" y1="2142.0" x2="670.0" y2="2142.0" stroke="#666666" stroke-width="2" />
<rect x="40.0" y="1065.0" width="190.0" height="86.0" fill="#FFFFFF" stroke="#000000" stroke-width="2" />
<rect x="350.0" y="104.0" width="186.0" height="52.0" fill="#FFFFFF" stroke="#000000" stroke-width="2" />
<rect x="670.0" y="54.0" width="160.0" height="40.0" fill="#FFFFFF" stroke="#000000" stroke-width="2" />
<rect x="670.0" y="110.0" width="160.0" height="40.0" fill="#FFFFFF" stroke="#000000" stroke-width="2" />
<rect x="670.0" y="166.0" width="160.0" height="40.0" fill="#FFFFFF" stroke="#000000" stroke-width="2" />
<rect x="350.0" y="284.0" width="186.0" height="52.0" fill="#FFFFFF" stroke="#000000" stroke-width="2" />
<rect x="670.0" y="234.0" width="160.0" height="40.0" fill="#FFFFFF" stroke="#000000" stroke-width="2" />
<rect x="670.0" y="290.0" width="160.0" height="40.0" fill="#FFFFFF" stroke="#000000" stroke-width="2" />
<rect x="670.0" y="346.0" width="160.0" height="40.0" fill="#FFFFFF" stroke="#000000" stroke-width="2" />
<rect x="350.0" y="492.0" width="186.0" height="52.0" fill="#FFFFFF" stroke="#000000" stroke-width="2" />
<rect x="670.0" y="414.0" width="160.0" height="40.0" fill="#FFFFFF" stroke="#000000" stroke-width="2" />
<rect x="670.0" y="470.0" width="160.0" height="40.0" fill="#FFFFFF" stroke="#000000" stroke-width="2" />
<rect x="670.0" y="526.0" width="160.0" height="40.0" fill="#FFFFFF" stroke="#000000" stroke-width="2" />
<rect x="670.0" y="582.0" width="160.0" height="40.0" fill="#FFFFFF" stroke="#000000" stroke-width="2" />
<rect x="350.0" y="728.0" width="186.0" height="52.0" fill="#FFFFFF" stroke="#000000" stroke-width="2" />
<rect x="670.0" y="650.0" width="160.0" height="40.0" fill="#FFFFFF" stroke="#000000" stroke-width="2" />
<rect x="670.0" y="706.0" width="160.0" height="40.0" fill="#FFFFFF" stroke="#000000" stroke-width="2" />
<rect x="670.0" y="762.0" width="160.0" height="40.0" fill="#FFFFFF" stroke="#000000" stroke-width="2" />
<rect x="670.0" y="818.0" width="160.0" height="40.0" fill="#FFFFFF" stroke="#000000" stroke-width="2" />
<rect x="350.0" y="936.0" width="186.0" height="52.0" fill="#FFFFFF" stroke="#000000" stroke-width="2" />
<rect x="670.0" y="886.0" width="160.0" height="40.0" fill="#FFFFFF" stroke="#000000" stroke-width="2" />
<rect x="670.0" y="942.0" width="160.0" height="40.0" fill="#FFFFFF" stroke="#000000" stroke-width="2" />
<rect x="670.0" y="998.0" width="160.0" height="40.0" fill="#FFFFFF" stroke="#000000" stroke-width="2" />
<rect x="350.0" y="1144.0" width="186.0" height="52.0" fill="#FFFFFF" stroke="#000000" stroke-width="2" />
<rect x="670.0" y="1066.0" width="160.0" height="40.0" fill="#FFFFFF" stroke="#000000" stroke-width="2" />
<rect x="670.0" y="1122.0" width="160.0" height="40.0" fill="#FFFFFF" stroke="#000000" stroke-width="2" />
<rect x="670.0" y="1178.0" width="160.0" height="40.0" fill="#FFFFFF" stroke="#000000" stroke-width="2" />
<rect x="670.0" y="1234.0" width="160.0" height="40.0" fill="#FFFFFF" stroke="#000000" stroke-width="2" />
<rect x="350.0" y="1380.0" width="186.0" height="52.0" fill="#FFFFFF" stroke="#000000" stroke-width="2" />
<rect x="670.0" y="1302.0" width="160.0" height="40.0" fill="#FFFFFF" stroke="#000000" stroke-width="2" />
<rect x="670.0" y="1358.0" width="160.0" height="40.0" fill="#FFFFFF" stroke="#000000" stroke-width="2" />
<rect x="670.0" y="1414.0" width="160.0" height="40.0" fill="#FFFFFF" stroke="#000000" stroke-width="2" />
<rect x="670.0" y="1470.0" width="160.0" height="40.0" fill="#FFFFFF" stroke="#000000" stroke-width="2" />
<rect x="350.0" y="1588.0" width="186.0" height="52.0" fill="#FFFFFF" stroke="#000000" stroke-width="2" />
<rect x="670.0" y="1538.0" width="160.0" height="40.0" fill="#FFFFFF" stroke="#000000" stroke-width="2" />
<rect x="670.0" y="1594.0" width="160.0" height="40.0" fill="#FFFFFF" stroke="#000000" stroke-width="2" />
<rect x="670.0" y="1650.0" width="160.0" height="40.0" fill="#FFFFFF" stroke="#000000" stroke-width="2" />
<rect x="350.0" y="1796.0" width="186.0" height="52.0" fill="#FFFFFF" stroke="#000000" stroke-width="2" />
<rect x="670.0" y="1718.0" width="160.0" height="40.0" fill="#FFFFFF" stroke="#000000" stroke-width="2" />
<rect x="670.0" y="1774.0" width="160.0" height="40.0" fill="#FFFFFF" stroke="#000000" stroke-width="2" />
<rect x="670.0" y="1830.0" width="160.0" height="40.0" fill="#FFFFFF" stroke="#000000" stroke-width="2" />
<rect x="670.0" y="1886.0" width="160.0" height="40.0" fill="#FFFFFF" stroke="#000000" stroke-width="2" />
<rect x="350.0" y="2032.0" width="186.0" height="52.0" fill="#FFFFFF" stroke="#000000" stroke-width="2" />
<rect x="670.0" y="1954.0" width="160.0" height="40.0" fill="#FFFFFF" stroke="#000000" stroke-width="2" />
<rect x="670.0" y="2010.0" width="160.0" height="40.0" fill="#FFFFFF" stroke="#000000" stroke-width="2" />
<rect x="670.0" y="2066.0" width="160.0" height="40.0" fill="#FFFFFF" stroke="#000000" stroke-width="2" />
<rect x="670.0" y="2122.0" width="160.0" height="40.0" fill="#FFFFFF" stroke="#000000" stroke-width="2" />
<text x="135.0" y="1092.0" font-family="Microsoft YaHei, SimSun, Arial, sans-serif" font-size="24" fill="#222222" text-anchor="middle" dominant-baseline="middle">基于深度学习的</text>
<text x="135.0" y="1124.0" font-family="Microsoft YaHei, SimSun, Arial, sans-serif" font-size="24" fill="#222222" text-anchor="middle" dominant-baseline="middle">入侵检测系统</text>
<text x="443.0" y="130.0" font-family="Microsoft YaHei, SimSun, Arial, sans-serif" font-size="20" fill="#222222" text-anchor="middle" dominant-baseline="middle">登录管理</text>
<text x="750.0" y="74.0" font-family="Microsoft YaHei, SimSun, Arial, sans-serif" font-size="18" fill="#222222" text-anchor="middle" dominant-baseline="middle">用户登录</text>
<text x="750.0" y="130.0" font-family="Microsoft YaHei, SimSun, Arial, sans-serif" font-size="18" fill="#222222" text-anchor="middle" dominant-baseline="middle">退出登录</text>
<text x="750.0" y="186.0" font-family="Microsoft YaHei, SimSun, Arial, sans-serif" font-size="18" fill="#222222" text-anchor="middle" dominant-baseline="middle">权限控制</text>
<text x="443.0" y="310.0" font-family="Microsoft YaHei, SimSun, Arial, sans-serif" font-size="20" fill="#222222" text-anchor="middle" dominant-baseline="middle">首页展示</text>
<text x="750.0" y="254.0" font-family="Microsoft YaHei, SimSun, Arial, sans-serif" font-size="18" fill="#222222" text-anchor="middle" dominant-baseline="middle">数据总览</text>
<text x="750.0" y="310.0" font-family="Microsoft YaHei, SimSun, Arial, sans-serif" font-size="18" fill="#222222" text-anchor="middle" dominant-baseline="middle">攻击分布</text>
<text x="750.0" y="366.0" font-family="Microsoft YaHei, SimSun, Arial, sans-serif" font-size="18" fill="#222222" text-anchor="middle" dominant-baseline="middle">趋势统计</text>
<text x="443.0" y="518.0" font-family="Microsoft YaHei, SimSun, Arial, sans-serif" font-size="20" fill="#222222" text-anchor="middle" dominant-baseline="middle">入侵检测</text>
<text x="750.0" y="434.0" font-family="Microsoft YaHei, SimSun, Arial, sans-serif" font-size="18" fill="#222222" text-anchor="middle" dominant-baseline="middle">模型选择</text>
<text x="750.0" y="490.0" font-family="Microsoft YaHei, SimSun, Arial, sans-serif" font-size="18" fill="#222222" text-anchor="middle" dominant-baseline="middle">文件上传</text>
<text x="750.0" y="546.0" font-family="Microsoft YaHei, SimSun, Arial, sans-serif" font-size="18" fill="#222222" text-anchor="middle" dominant-baseline="middle">启动检测</text>
<text x="750.0" y="602.0" font-family="Microsoft YaHei, SimSun, Arial, sans-serif" font-size="18" fill="#222222" text-anchor="middle" dominant-baseline="middle">结果生成</text>
<text x="443.0" y="754.0" font-family="Microsoft YaHei, SimSun, Arial, sans-serif" font-size="20" fill="#222222" text-anchor="middle" dominant-baseline="middle">结果展示</text>
<text x="750.0" y="670.0" font-family="Microsoft YaHei, SimSun, Arial, sans-serif" font-size="18" fill="#222222" text-anchor="middle" dominant-baseline="middle">结果列表</text>
<text x="750.0" y="726.0" font-family="Microsoft YaHei, SimSun, Arial, sans-serif" font-size="18" fill="#222222" text-anchor="middle" dominant-baseline="middle">结果详情</text>
<text x="750.0" y="782.0" font-family="Microsoft YaHei, SimSun, Arial, sans-serif" font-size="18" fill="#222222" text-anchor="middle" dominant-baseline="middle">攻击明细</text>
<text x="750.0" y="838.0" font-family="Microsoft YaHei, SimSun, Arial, sans-serif" font-size="18" fill="#222222" text-anchor="middle" dominant-baseline="middle">删除记录</text>
<text x="443.0" y="962.0" font-family="Microsoft YaHei, SimSun, Arial, sans-serif" font-size="20" fill="#222222" text-anchor="middle" dominant-baseline="middle">历史记录</text>
<text x="750.0" y="906.0" font-family="Microsoft YaHei, SimSun, Arial, sans-serif" font-size="18" fill="#222222" text-anchor="middle" dominant-baseline="middle">历史查询</text>
<text x="750.0" y="962.0" font-family="Microsoft YaHei, SimSun, Arial, sans-serif" font-size="18" fill="#222222" text-anchor="middle" dominant-baseline="middle">关键字检索</text>
<text x="750.0" y="1018.0" font-family="Microsoft YaHei, SimSun, Arial, sans-serif" font-size="18" fill="#222222" text-anchor="middle" dominant-baseline="middle">任务追踪</text>
<text x="443.0" y="1170.0" font-family="Microsoft YaHei, SimSun, Arial, sans-serif" font-size="20" fill="#222222" text-anchor="middle" dominant-baseline="middle">告警管理</text>
<text x="750.0" y="1086.0" font-family="Microsoft YaHei, SimSun, Arial, sans-serif" font-size="18" fill="#222222" text-anchor="middle" dominant-baseline="middle">告警列表</text>
<text x="750.0" y="1142.0" font-family="Microsoft YaHei, SimSun, Arial, sans-serif" font-size="18" fill="#222222" text-anchor="middle" dominant-baseline="middle">状态筛选</text>
<text x="750.0" y="1198.0" font-family="Microsoft YaHei, SimSun, Arial, sans-serif" font-size="18" fill="#222222" text-anchor="middle" dominant-baseline="middle">分页查看</text>
<text x="750.0" y="1254.0" font-family="Microsoft YaHei, SimSun, Arial, sans-serif" font-size="18" fill="#222222" text-anchor="middle" dominant-baseline="middle">状态更新</text>
<text x="443.0" y="1406.0" font-family="Microsoft YaHei, SimSun, Arial, sans-serif" font-size="20" fill="#222222" text-anchor="middle" dominant-baseline="middle">模型管理</text>
<text x="750.0" y="1322.0" font-family="Microsoft YaHei, SimSun, Arial, sans-serif" font-size="18" fill="#222222" text-anchor="middle" dominant-baseline="middle">新增模型</text>
<text x="750.0" y="1378.0" font-family="Microsoft YaHei, SimSun, Arial, sans-serif" font-size="18" fill="#222222" text-anchor="middle" dominant-baseline="middle">模型列表</text>
<text x="750.0" y="1434.0" font-family="Microsoft YaHei, SimSun, Arial, sans-serif" font-size="18" fill="#222222" text-anchor="middle" dominant-baseline="middle">启用模型</text>
<text x="750.0" y="1490.0" font-family="Microsoft YaHei, SimSun, Arial, sans-serif" font-size="18" fill="#222222" text-anchor="middle" dominant-baseline="middle">删除模型</text>
<text x="443.0" y="1614.0" font-family="Microsoft YaHei, SimSun, Arial, sans-serif" font-size="20" fill="#222222" text-anchor="middle" dominant-baseline="middle">性能评估</text>
<text x="750.0" y="1558.0" font-family="Microsoft YaHei, SimSun, Arial, sans-serif" font-size="18" fill="#222222" text-anchor="middle" dominant-baseline="middle">指标查看</text>
<text x="750.0" y="1614.0" font-family="Microsoft YaHei, SimSun, Arial, sans-serif" font-size="18" fill="#222222" text-anchor="middle" dominant-baseline="middle">混淆矩阵</text>
<text x="750.0" y="1670.0" font-family="Microsoft YaHei, SimSun, Arial, sans-serif" font-size="18" fill="#222222" text-anchor="middle" dominant-baseline="middle">性能对比</text>
<text x="443.0" y="1822.0" font-family="Microsoft YaHei, SimSun, Arial, sans-serif" font-size="20" fill="#222222" text-anchor="middle" dominant-baseline="middle">流量监测</text>
<text x="750.0" y="1738.0" font-family="Microsoft YaHei, SimSun, Arial, sans-serif" font-size="18" fill="#222222" text-anchor="middle" dominant-baseline="middle">网卡选择</text>
<text x="750.0" y="1794.0" font-family="Microsoft YaHei, SimSun, Arial, sans-serif" font-size="18" fill="#222222" text-anchor="middle" dominant-baseline="middle">启动监测</text>
<text x="750.0" y="1850.0" font-family="Microsoft YaHei, SimSun, Arial, sans-serif" font-size="18" fill="#222222" text-anchor="middle" dominant-baseline="middle">停止监测</text>
<text x="750.0" y="1906.0" font-family="Microsoft YaHei, SimSun, Arial, sans-serif" font-size="18" fill="#222222" text-anchor="middle" dominant-baseline="middle">提取测试</text>
<text x="443.0" y="2058.0" font-family="Microsoft YaHei, SimSun, Arial, sans-serif" font-size="20" fill="#222222" text-anchor="middle" dominant-baseline="middle">用户管理</text>
<text x="750.0" y="1974.0" font-family="Microsoft YaHei, SimSun, Arial, sans-serif" font-size="18" fill="#222222" text-anchor="middle" dominant-baseline="middle">新增用户</text>
<text x="750.0" y="2030.0" font-family="Microsoft YaHei, SimSun, Arial, sans-serif" font-size="18" fill="#222222" text-anchor="middle" dominant-baseline="middle">编辑用户</text>
<text x="750.0" y="2086.0" font-family="Microsoft YaHei, SimSun, Arial, sans-serif" font-size="18" fill="#222222" text-anchor="middle" dominant-baseline="middle">删除用户</text>
<text x="750.0" y="2142.0" font-family="Microsoft YaHei, SimSun, Arial, sans-serif" font-size="18" fill="#222222" text-anchor="middle" dominant-baseline="middle">角色设置</text>
</svg>